<svg width="1989" height="852" xmlns="http://www.w3.org/2000/svg" xmlns:xlink="http://www.w3.org/1999/xlink" xml:space="preserve" overflow="hidden"><defs><clipPath id="clip0"><rect x="673" y="660" width="1989" height="852"/></clipPath></defs><g clip-path="url(#clip0)" transform="translate(-673 -660)"><text fill="#000000" fill-opacity="1" font-family="Times New Roman,Times New Roman_MSFontService,sans-serif" font-style="normal" font-variant="normal" font-weight="400" font-stretch="normal" font-size="64" text-anchor="start" direction="ltr" writing-mode="lr-tb" unicode-bidi="normal" text-decoration="none" transform="matrix(1 0 0 1 735.832 1268)">Forward </text><text fill="#000000" fill-opacity="1" font-family="Times New Roman,Times New Roman_MSFontService,sans-serif" font-style="normal" font-variant="normal" font-weight="400" font-stretch="normal" font-size="64" text-anchor="start" direction="ltr" writing-mode="lr-tb" unicode-bidi="normal" text-decoration="none" transform="matrix(1 0 0 1 716.925 1345)">Result (8)</text><text fill="#000000" fill-opacity="1" font-family="Times New Roman,Times New Roman_MSFontService,sans-serif" font-style="normal" font-variant="normal" font-weight="400" font-stretch="normal" font-size="64" text-anchor="start" direction="ltr" writing-mode="lr-tb" unicode-bidi="normal" text-decoration="none" transform="matrix(1 0 0 1 759.246 842)">Submit</text><text fill="#000000" fill-opacity="1" font-family="Times New Roman,Times New Roman_MSFontService,sans-serif" font-style="normal" font-variant="normal" font-weight="400" font-stretch="normal" font-size="64" text-anchor="start" direction="ltr" writing-mode="lr-tb" unicode-bidi="normal" text-decoration="none" transform="matrix(1 0 0 1 746.321 919)">Task (1)</text><text fill="#000000" fill-opacity="1" font-family="Times New Roman,Times New Roman_MSFontService,sans-serif" font-style="normal" font-variant="normal" font-weight="400" font-stretch="normal" font-size="64" text-anchor="start" direction="ltr" writing-mode="lr-tb" unicode-bidi="normal" text-decoration="none" transform="matrix(1 0 0 1 1088.48 1308)">Return Result (7)</text><text fill="#000000" fill-opacity="1" font-family="Times New Roman,Times New Roman_MSFontService,sans-serif" font-style="normal" font-variant="normal" font-weight="400" font-stretch="normal" font-size="64" text-anchor="start" direction="ltr" writing-mode="lr-tb" unicode-bidi="normal" text-decoration="none" transform="matrix(1 0 0 1 1097.91 1190)">Offload Task (5)</text><rect x="775.5" y="675.5" width="456" height="99" stroke="#000000" stroke-width="4.58333" stroke-linecap="butt" stroke-linejoin="miter" stroke-miterlimit="8" stroke-opacity="1" fill="#FFFFFF" fill-opacity="1"/><text fill="#000000" fill-opacity="1" font-family="Times New Roman,Times New Roman_MSFontService,sans-serif" font-style="normal" font-variant="normal" font-weight="400" font-stretch="normal" font-size="69" text-anchor="start" direction="ltr" writing-mode="lr-tb" unicode-bidi="normal" text-decoration="none" transform="matrix(1 0 0 1 851.933 750)">:Consumer</text><rect x="1392.5" y="675.5" width="456" height="99" stroke="#000000" stroke-width="4.58333" stroke-linecap="butt" stroke-linejoin="miter" stroke-miterlimit="8" stroke-opacity="1" fill="#FFFFFF" fill-opacity="1"/><text fill="#000000" fill-opacity="1" font-family="Times New Roman,Times New Roman_MSFontService,sans-serif" font-style="normal" font-variant="normal" font-weight="400" font-stretch="normal" font-size="69" text-anchor="start" direction="ltr" writing-mode="lr-tb" unicode-bidi="normal" text-decoration="none" transform="matrix(1 0 0 1 1492.33 750)">:Provider</text><rect x="2020.5" y="677.5" width="455" height="99" stroke="#000000" stroke-width="4.58333" stroke-linecap="butt" stroke-linejoin="miter" stroke-miterlimit="8" stroke-opacity="1" fill="#FFFFFF" fill-opacity="1"/><text fill="#000000" fill-opacity="1" font-family="Times New Roman,Times New Roman_MSFontService,sans-serif" font-style="normal" font-variant="normal" font-weight="400" font-stretch="normal" font-size="69" text-anchor="start" direction="ltr" writing-mode="lr-tb" unicode-bidi="normal" text-decoration="none" transform="matrix(1 0 0 1 2142.63 751)">:Broker</text><path d="M1005.79 774.5 1005.79 811.167 1001.21 811.167 1001.21 774.5ZM1005.79 824.917 1005.79 861.583 1001.21 861.583 1001.21 824.917ZM1005.79 875.333 1005.79 912 1001.21 912 1001.21 875.333ZM1005.79 925.75 1005.79 962.417 1001.21 962.417 1001.21 925.75ZM1005.79 976.167 1005.79 1012.83 1001.21 1012.83 1001.21 976.167ZM1005.79 1026.58 1005.79 1063.25 1001.21 1063.25 1001.21 1026.58ZM1005.79 1077 1005.79 1113.67 1001.21 1113.67 1001.21 1077ZM1005.79 1127.42 1005.79 1164.08 1001.21 1164.08 1001.21 1127.42ZM1005.79 1177.83 1005.79 1214.5 1001.21 1214.5 1001.21 1177.83ZM1005.79 1228.25 1005.79 1264.92 1001.21 1264.92 1001.21 1228.25ZM1005.79 1278.67 1005.79 1315.33 1001.21 1315.33 1001.21 1278.67ZM1005.79 1329.08 1005.79 1365.75 1001.21 1365.75 1001.21 1329.08ZM1005.79 1379.5 1005.79 1416.17 1001.21 1416.17 1001.21 1379.5ZM1026.42 1417.25 1003.5 1463.08 980.584 1417.25Z" fill="#000000" fill-rule="nonzero" fill-opacity="1"/><path d="M1622.79 774.5 1622.79 811.167 1618.21 811.167 1618.21 774.5ZM1622.79 824.917 1622.79 861.583 1618.21 861.583 1618.21 824.917ZM1622.79 875.333 1622.79 912 1618.21 912 1618.21 875.333ZM1622.79 925.75 1622.79 962.417 1618.21 962.417 1618.21 925.75ZM1622.79 976.167 1622.79 1012.83 1618.21 1012.83 1618.21 976.167ZM1622.79 1026.58 1622.79 1063.25 1618.21 1063.25 1618.21 1026.58ZM1622.79 1077 1622.79 1113.67 1618.21 1113.67 1618.21 1077ZM1622.79 1127.42 1622.79 1164.08 1618.21 1164.08 1618.21 1127.42ZM1622.79 1177.83 1622.79 1214.5 1618.21 1214.5 1618.21 1177.83ZM1622.79 1228.25 1622.79 1264.92 1618.21 1264.92 1618.21 1228.25ZM1622.79 1278.67 1622.79 1315.33 1618.21 1315.33 1618.21 1278.67ZM1622.79 1329.08 1622.79 1365.75 1618.21 1365.75 1618.21 1329.08ZM1622.79 1379.5 1622.79 1416.17 1618.21 1416.17 1618.21 1379.5ZM1643.42 1417.25 1620.5 1463.08 1597.58 1417.25Z" fill="#000000" fill-rule="nonzero" fill-opacity="1"/><path d="M2249.79 776.5 2249.79 813.167 2245.21 813.167 2245.21 776.5ZM2249.79 826.917 2249.79 863.583 2245.21 863.583 2245.21 826.917ZM2249.79 877.333 2249.79 914 2245.21 914 2245.21 877.333ZM2249.79 927.75 2249.79 964.417 2245.21 964.417 2245.21 927.75ZM2249.79 978.167 2249.79 1014.83 2245.21 1014.83 2245.21 978.167ZM2249.79 1028.58 2249.79 1065.25 2245.21 1065.25 2245.21 1028.58ZM2249.79 1079 2249.79 1115.67 2245.21 1115.67 2245.21 1079ZM2249.79 1129.42 2249.79 1166.08 2245.21 1166.08 2245.21 1129.42ZM2249.79 1179.83 2249.79 1216.5 2245.21 1216.5 2245.21 1179.83ZM2249.79 1230.25 2249.79 1266.92 2245.21 1266.92 2245.21 1230.25ZM2249.79 1280.67 2249.79 1317.33 2245.21 1317.33 2245.21 1280.67ZM2249.79 1331.08 2249.79 1367.75 2245.21 1367.75 2245.21 1331.08ZM2249.79 1381.5 2249.79 1418.17 2245.21 1418.17 2245.21 1381.5ZM2270.42 1419.25 2247.5 1465.08 2224.58 1419.25Z" fill="#000000" fill-rule="nonzero" fill-opacity="1"/><path d="M751.504 931.208 958.548 931.557 958.54 936.14 751.496 935.792ZM751.477 947.25C743.883 947.237 737.737 941.071 737.75 933.477 737.763 925.883 743.929 919.737 751.523 919.75 759.117 919.763 765.263 925.929 765.25 933.523 765.237 941.117 759.071 947.263 751.477 947.25ZM953.984 920.091 981.461 933.887 953.937 947.591Z" fill="#000000" fill-rule="nonzero" fill-opacity="1"/><path d="M1023.5 999.208 2203.66 999.208 2203.66 1003.79 1023.5 1003.79ZM2199.07 987.75 2226.57 1001.5 2199.07 1015.25Z" fill="#00067F" fill-rule="nonzero" fill-opacity="1"/><text fill="#000000" fill-opacity="1" font-family="Times New Roman,Times New Roman_MSFontService,sans-serif" font-style="normal" font-variant="normal" font-weight="400" font-stretch="normal" font-size="64" text-anchor="start" direction="ltr" writing-mode="lr-tb" unicode-bidi="normal" text-decoration="none" transform="matrix(1 0 0 1 1034.63 987)">Resource Request (2)</text><rect x="2227.5" y="977.5" width="41" height="162" stroke="#000000" stroke-width="4.58333" stroke-linecap="butt" stroke-linejoin="miter" stroke-miterlimit="8" stroke-opacity="1" fill="#FFFFFF" fill-opacity="1"/><path d="M2270.5 1091.6 2284.25 1084.53 2284.25 1090.43C2308.53 1086.27 2325.5 1071.71 2325.5 1055.05 2325.5 1071.71 2308.53 1086.27 2284.25 1090.43L2284.25 1096.34Z" fill="#000000" fill-rule="evenodd" fill-opacity="1"/><path d="M2325.5 1055.05C2325.5 1034.86 2300.88 1018.5 2270.5 1018.5L2270.5 1018.5C2300.88 1018.5 2325.5 1034.86 2325.5 1055.05Z" fill="#000000" fill-rule="evenodd" fill-opacity="1"/><path d="M2325.5 1055.05C2325.5 1034.86 2300.88 1018.5 2270.5 1018.5L2270.5 1018.5C2300.88 1018.5 2325.5 1034.86 2325.5 1055.05 2325.5 1071.71 2308.53 1086.27 2284.25 1090.43L2284.25 1096.34 2270.5 1091.6 2284.25 1084.53 2284.25 1090.43C2308.53 1086.27 2325.5 1071.71 2325.5 1055.05" stroke="#000000" stroke-width="4.58333" stroke-linecap="butt" stroke-linejoin="miter" stroke-miterlimit="8" stroke-opacity="1" fill="none" fill-rule="evenodd"/><text fill="#000000" fill-opacity="1" font-family="Times New Roman,Times New Roman_MSFontService,sans-serif" font-style="normal" font-variant="normal" font-weight="400" font-stretch="normal" font-size="64" text-anchor="start" direction="ltr" writing-mode="lr-tb" unicode-bidi="normal" text-decoration="none" transform="matrix(1 0 0 1 2366.64 1070)">Assign</text><text fill="#000000" fill-opacity="1" font-family="Times New Roman,Times New Roman_MSFontService,sans-serif" font-style="normal" font-variant="normal" font-weight="400" font-stretch="normal" font-size="64" text-anchor="start" direction="ltr" writing-mode="lr-tb" unicode-bidi="normal" text-decoration="none" transform="matrix(1 0 0 1 2291.02 1147)">Resource (3)</text><path d="M6.87445e-07-2.29167 1180.16-2.29131 1180.16 2.29202-6.87445e-07 2.29167ZM1175.57-13.7496 1203.07 0.000360892 1175.57 13.7504Z" fill="#0080FF" fill-rule="nonzero" fill-opacity="1" transform="matrix(-1 0 0 1 2226.57 1103.5)"/><text fill="#000000" fill-opacity="1" font-family="Times New Roman,Times New Roman_MSFontService,sans-serif" font-style="normal" font-variant="normal" font-weight="400" font-stretch="normal" font-size="64" text-anchor="start" direction="ltr" writing-mode="lr-tb" unicode-bidi="normal" text-decoration="none" transform="matrix(1 0 0 1 1633.03 1091)">Resource Response (4)</text><path d="M1024.5 1202.21 1579.73 1202.21 1579.73 1206.79 1024.5 1206.79ZM1575.15 1190.75 1602.65 1204.5 1575.15 1218.25Z" fill="#7DFF7A" fill-rule="nonzero" fill-opacity="1"/><rect x="1602.5" y="1177.5" width="39.9999" height="169" stroke="#000000" stroke-width="4.58333" stroke-linecap="butt" stroke-linejoin="miter" stroke-miterlimit="8" stroke-opacity="1" fill="#FFFFFF" fill-opacity="1"/><path d="M1645.5 1293.6 1659.25 1286.53 1659.25 1292.43C1683.53 1288.27 1700.5 1273.71 1700.5 1257.05 1700.5 1273.71 1683.53 1288.27 1659.25 1292.43L1659.25 1298.34Z" fill="#800000" fill-rule="evenodd" fill-opacity="1"/><path d="M1700.5 1257.05C1700.5 1236.86 1675.88 1220.5 1645.5 1220.5L1645.5 1220.5C1675.88 1220.5 1700.5 1236.86 1700.5 1257.05Z" fill="#670000" fill-rule="evenodd" fill-opacity="1"/><path d="M1700.5 1257.05C1700.5 1236.86 1675.88 1220.5 1645.5 1220.5L1645.5 1220.5C1675.88 1220.5 1700.5 1236.86 1700.5 1257.05 1700.5 1273.71 1683.53 1288.27 1659.25 1292.43L1659.25 1298.34 1645.5 1293.6 1659.25 1286.53 1659.25 1292.43C1683.53 1288.27 1700.5 1273.71 1700.5 1257.05" stroke="#800000" stroke-width="4.58333" stroke-linecap="butt" stroke-linejoin="miter" stroke-miterlimit="8" stroke-opacity="1" fill="none" fill-rule="evenodd"/><text fill="#000000" fill-opacity="1" font-family="Times New Roman,Times New Roman_MSFontService,sans-serif" font-style="normal" font-variant="normal" font-weight="400" font-stretch="normal" font-size="64" text-anchor="start" direction="ltr" writing-mode="lr-tb" unicode-bidi="normal" text-decoration="none" transform="matrix(1 0 0 1 1721.37 1277)">Execute (6)</text><path d="M1.4305e-06-2.29167 555.233-2.29132 555.233 2.29201-1.4305e-06 2.29167ZM550.65-13.7497 578.15 0.000360892 550.65 13.7503Z" fill="#FF9400" fill-rule="nonzero" fill-opacity="1" transform="matrix(-1 0 0 1 1600.65 1320.5)"/><path d="M22.9166-2.29163 259.196-2.29131 259.196 2.29203 22.9166 2.2917ZM27.5 13.75 0 0 27.5-13.75Z" fill="#000000" fill-rule="nonzero" fill-opacity="1" transform="matrix(1 0 0 -1 724.5 1362.5)"/><rect x="982.5" y="896.5" width="40.9999" height="493" stroke="#000000" stroke-width="4.58333" stroke-linecap="butt" stroke-linejoin="miter" stroke-miterlimit="8" stroke-opacity="1" fill="#FFFFFF" fill-opacity="1"/></g></svg>